ffmpeg started on 2026-03-22 at 17:44:54
Report written to "D:\Convert\FFMetrics\reports\ssim_report-6.txt"
Log level: 32
Command line:
ffmpeg -hide_banner -nostdin -r 24000/1001 -i "F:\\Convert\\files\\[DC] Make Heroine ga Oosugiru - 07_Telegram_HEVC(242).mkv" -r 24000/1001 -i "F:\\Convert\\files\\[DC] Make Heroine ga Oosugiru - 07_Telegram.mp4" -lavfi "[0:v]settb=AVTB,setpts=PTS-STARTPTS,format=pix_fmts=yuv420p10le,fps=24000/1001,scale=1920:1080:flags=lanczos:param0=3:out_range=limited:out_color_matrix=bt709:out_chroma_loc=left,setsar=1/1,setdar=(1920/1080)*(1/1),colorspace=format=yuv420p10:range=tv:primaries=bt709:trc=bt709:space=bt709:fast=0[main];[1:v]settb=AVTB,setpts=PTS-STARTPTS,format=pix_fmts=yuv420p,fps=24000/1001,scale=1920:1080:flags=lanczos:param0=3:out_range=limited:out_color_matrix=bt709:out_chroma_loc=left,setsar=1.000,setdar=1.778,colorspace=format=yuv420p:range=tv:primaries=bt709:trc=bt709:space=bt709:fast=0[ref];[main][ref]ssim=eof_action=endall:stats_file='D\\:/Convert/FFMetrics/logs/ssim_logfile-6.txt'" -f null -
Input #0, matroska,webm, from 'F:\Convert\files\[DC] Make Heroine ga Oosugiru - 07_Telegram_HEVC(242).mkv':
  Metadata:
    COMPATIBLE_BRANDS: isomiso2avc1mp41
    MAJOR_BRAND     : isom
    MINOR_VERSION   : 512
    ENCODER         : Lavf61.7.100
  Duration: 00:24:06.79, start: -0.021000, bitrate: 1000 kb/s
  Stream #0:0: Video: hevc (Main 10), yuv420p10le(tv, bt709, progressive), 1920x1080 [SAR 1:1 DAR 16:9], 23.98 fps, 23.98 tbr, 1k tbn (default)
      Metadata:
        HANDLER_NAME    : VideoHandler
        VENDOR_ID       : [0][0][0][0]
        ENCODER         : Lavc61.19.100 libx265
        BPS             : 803881
        DURATION        : 00:24:06.569708333
        NUMBER_OF_FRAMES: 34683
        NUMBER_OF_BYTES : 145358670
        _STATISTICS_WRITING_APP: mkvpropedit v94.0 ('Initiate') 64-bit
        _STATISTICS_WRITING_DATE_UTC: 2026-03-21 15:29:06
        _STATISTICS_TAGS: BPS DURATION NUMBER_OF_FRAMES NUMBER_OF_BYTES
  Stream #0:1: Audio: aac (LC), 48000 Hz, stereo, fltp (default)
      Metadata:
        HANDLER_NAME    : SoundHandler
        VENDOR_ID       : [0][0][0][0]
        ENCODER         : Lavc61.19.100 aac
        BPS             : 193194
        DURATION        : 00:24:06.784000000
        NUMBER_OF_FRAMES: 67819
        NUMBER_OF_BYTES : 34938755
        _STATISTICS_WRITING_APP: mkvpropedit v94.0 ('Initiate') 64-bit
        _STATISTICS_WRITING_DATE_UTC: 2026-03-21 15:29:06
        _STATISTICS_TAGS: BPS DURATION NUMBER_OF_FRAMES NUMBER_OF_BYTES
Input #1, mov,mp4,m4a,3gp,3g2,mj2, from 'F:\Convert\files\[DC] Make Heroine ga Oosugiru - 07_Telegram.mp4':
  Metadata:
    major_brand     : isom
    minor_version   : 512
    compatible_brands: isomiso2avc1mp41
    encoder         : Lavf60.16.100
  Duration: 00:24:06.74, start: 0.000000, bitrate: 3764 kb/s
  Stream #1:0[0x1](und): Video: h264 (High) (avc1 / 0x31637661), yuv420p(tv, bt709, progressive), 1920x1080 [SAR 1:1 DAR 16:9], 3616 kb/s, 23.98 fps, 23.98 tbr, 24k tbn (default)
      Metadata:
        handler_name    : VideoHandler
        vendor_id       : [0][0][0][0]
        encoder         : Lavc60.31.102 h264_qsv
  Stream #1:1[0x2](und): Audio: aac (HE-AACv2) (mp4a / 0x6134706D), 48000 Hz, stereo, fltp, 144 kb/s (default)
      Metadata:
        handler_name    : SoundHandler
        vendor_id       : [0][0][0][0]
Stream mapping:
  Stream #0:0 (hevc) -> settb:default
  Stream #1:0 (h264) -> settb:default
  ssim:default -> Stream #0:0 (wrapped_avframe)
  Stream #0:1 -> #0:1 (aac (native) -> pcm_s16le (native))
Output #0, null, to 'pipe:':
  Metadata:
    COMPATIBLE_BRANDS: isomiso2avc1mp41
    MAJOR_BRAND     : isom
    MINOR_VERSION   : 512
    encoder         : Lavf61.7.100
  Stream #0:0: Video: wrapped_avframe, yuv420p10le(tv, bt709, progressive), 1920x1080 [SAR 1:1 DAR 16:9], q=2-31, 200 kb/s, 23.98 fps, 23.98 tbn
      Metadata:
        encoder         : Lavc61.19.100 wrapped_avframe
  Stream #0:1: Audio: pcm_s16le, 48000 Hz, stereo, s16, 1536 kb/s (default)
      Metadata:
        HANDLER_NAME    : SoundHandler
        VENDOR_ID       : [0][0][0][0]
        _STATISTICS_TAGS: BPS DURATION NUMBER_OF_FRAMES NUMBER_OF_BYTES
        BPS             : 193194
        DURATION        : 00:24:06.784000000
        NUMBER_OF_FRAMES: 67819
        NUMBER_OF_BYTES : 34938755
        _STATISTICS_WRITING_APP: mkvpropedit v94.0 ('Initiate') 64-bit
        _STATISTICS_WRITING_DATE_UTC: 2026-03-21 15:29:06
        encoder         : Lavc61.19.100 pcm_s16le
frame=  124 fps=0.0 q=-0.0 size=N/A time=00:00:05.17 bitrate=N/A speed=9.98x    frame=  313 fps=304 q=-0.0 size=N/A time=00:00:13.05 bitrate=N/A speed=12.7x    frame=  503 fps=324 q=-0.0 size=N/A time=00:00:20.97 bitrate=N/A speed=13.5x    frame=  697 fps=337 q=-0.0 size=N/A time=00:00:29.07 bitrate=N/A speed=14.1x    frame=  886 fps=344 q=-0.0 size=N/A time=00:00:36.95 bitrate=N/A speed=14.3x    frame= 1020 fps=330 q=-0.0 size=N/A time=00:00:42.54 bitrate=N/A speed=13.8x    frame= 1190 fps=330 q=-0.0 size=N/A time=00:00:49.63 bitrate=N/A speed=13.8x    frame= 1356 fps=328 q=-0.0 size=N/A time=00:00:56.55 bitrate=N/A speed=13.7x    frame= 1515 fps=326 q=-0.0 size=N/A time=00:01:03.18 bitrate=N/A speed=13.6x    frame= 1658 fps=322 q=-0.0 size=N/A time=00:01:09.15 bitrate=N/A speed=13.4x    frame= 1831 fps=323 q=-0.0 size=N/A time=00:01:16.36 bitrate=N/A speed=13.5x    frame= 1993 fps=322 q=-0.0 size=N/A time=00:01:23.12 bitrate=N/A speed=13.4x    frame= 2102 fps=314 q=-0.0 size=N/A time=00:01:27.67 bitrate=N/A speed=13.1x    frame= 2265 fps=314 q=-0.0 size=N/A time=00:01:34.46 bitrate=N/A speed=13.1x    frame= 2411 fps=312 q=-0.0 size=N/A time=00:01:40.55 bitrate=N/A speed=  13x    frame= 2549 fps=309 q=-0.0 size=N/A time=00:01:46.31 bitrate=N/A speed=12.9x    frame= 2722 fps=310 q=-0.0 size=N/A time=00:01:53.53 bitrate=N/A speed=12.9x    frame= 2896 fps=312 q=-0.0 size=N/A time=00:02:00.78 bitrate=N/A speed=  13x    frame= 3077 fps=314 q=-0.0 size=N/A time=00:02:08.33 bitrate=N/A speed=13.1x    frame= 3268 fps=317 q=-0.0 size=N/A time=00:02:16.30 bitrate=N/A speed=13.2x    frame= 3469 fps=320 q=-0.0 size=N/A time=00:02:24.68 bitrate=N/A speed=13.4x    frame= 3671 fps=323 q=-0.0 size=N/A time=00:02:33.11 bitrate=N/A speed=13.5x    frame= 3860 fps=325 q=-0.0 size=N/A time=00:02:40.99 bitrate=N/A speed=13.6x    frame= 4051 fps=327 q=-0.0 size=N/A time=00:02:48.96 bitrate=N/A speed=13.6x    frame= 4251 fps=329 q=-0.0 size=N/A time=00:02:57.30 bitrate=N/A speed=13.7x    frame= 4440 fps=331 q=-0.0 size=N/A time=00:03:05.18 bitrate=N/A speed=13.8x    frame= 4636 fps=333 q=-0.0 size=N/A time=00:03:13.35 bitrate=N/A speed=13.9x    frame= 4826 fps=334 q=-0.0 size=N/A time=00:03:21.28 bitrate=N/A speed=13.9x    frame= 5022 fps=335 q=-0.0 size=N/A time=00:03:29.45 bitrate=N/A speed=  14x    frame= 5215 fps=337 q=-0.0 size=N/A time=00:03:37.50 bitrate=N/A speed=  14x    frame= 5407 fps=338 q=-0.0 size=N/A time=00:03:45.51 bitrate=N/A speed=14.1x    frame= 5605 fps=339 q=-0.0 size=N/A time=00:03:53.77 bitrate=N/A speed=14.1x    frame= 5793 fps=340 q=-0.0 size=N/A time=00:04:01.61 bitrate=N/A speed=14.2x    frame= 5982 fps=341 q=-0.0 size=N/A time=00:04:09.49 bitrate=N/A speed=14.2x    frame= 6173 fps=342 q=-0.0 size=N/A time=00:04:17.46 bitrate=N/A speed=14.3x    frame= 6373 fps=343 q=-0.0 size=N/A time=00:04:25.80 bitrate=N/A speed=14.3x    frame= 6570 fps=344 q=-0.0 size=N/A time=00:04:34.02 bitrate=N/A speed=14.3x    frame= 6765 fps=345 q=-0.0 size=N/A time=00:04:42.15 bitrate=N/A speed=14.4x    frame= 6959 fps=346 q=-0.0 size=N/A time=00:04:50.24 bitrate=N/A speed=14.4x    frame= 7148 fps=346 q=-0.0 size=N/A time=00:04:58.13 bitrate=N/A speed=14.4x    frame= 7340 fps=347 q=-0.0 size=N/A time=00:05:06.13 bitrate=N/A speed=14.5x    frame= 7529 fps=347 q=-0.0 size=N/A time=00:05:14.02 bitrate=N/A speed=14.5x    frame= 7713 fps=347 q=-0.0 size=N/A time=00:05:21.69 bitrate=N/A speed=14.5x    frame= 7904 fps=348 q=-0.0 size=N/A time=00:05:29.66 bitrate=N/A speed=14.5x    frame= 8097 fps=348 q=-0.0 size=N/A time=00:05:37.71 bitrate=N/A speed=14.5x    frame= 8285 fps=349 q=-0.0 size=N/A time=00:05:45.55 bitrate=N/A speed=14.5x    frame= 8476 fps=349 q=-0.0 size=N/A time=00:05:53.51 bitrate=N/A speed=14.6x    frame= 8667 fps=350 q=-0.0 size=N/A time=00:06:01.48 bitrate=N/A speed=14.6x    frame= 8863 fps=350 q=-0.0 size=N/A time=00:06:09.66 bitrate=N/A speed=14.6x    frame= 9055 fps=351 q=-0.0 size=N/A time=00:06:17.66 bitrate=N/A speed=14.6x    frame= 9246 fps=351 q=-0.0 size=N/A time=00:06:25.63 bitrate=N/A speed=14.6x    frame= 9429 fps=351 q=-0.0 size=N/A time=00:06:33.26 bitrate=N/A speed=14.7x    frame= 9625 fps=352 q=-0.0 size=N/A time=00:06:41.44 bitrate=N/A speed=14.7x    frame= 9807 fps=352 q=-0.0 size=N/A time=00:06:49.03 bitrate=N/A speed=14.7x    frame= 9987 fps=352 q=-0.0 size=N/A time=00:06:56.54 bitrate=N/A speed=14.7x    frame=10160 fps=352 q=-0.0 size=N/A time=00:07:03.75 bitrate=N/A speed=14.7x    frame=10347 fps=352 q=-0.0 size=N/A time=00:07:11.55 bitrate=N/A speed=14.7x    frame=10520 fps=351 q=-0.0 size=N/A time=00:07:18.77 bitrate=N/A speed=14.7x    frame=10693 fps=351 q=-0.0 size=N/A time=00:07:25.98 bitrate=N/A speed=14.6x    frame=10871 fps=351 q=-0.0 size=N/A time=00:07:33.41 bitrate=N/A speed=14.6x    frame=11043 fps=351 q=-0.0 size=N/A time=00:07:40.58 bitrate=N/A speed=14.6x    frame=11214 fps=350 q=-0.0 size=N/A time=00:07:47.71 bitrate=N/A speed=14.6x    frame=11391 fps=350 q=-0.0 size=N/A time=00:07:55.09 bitrate=N/A speed=14.6x    frame=11575 fps=350 q=-0.0 size=N/A time=00:08:02.77 bitrate=N/A speed=14.6x    frame=11745 fps=350 q=-0.0 size=N/A time=00:08:09.86 bitrate=N/A speed=14.6x    frame=11912 fps=350 q=-0.0 size=N/A time=00:08:16.82 bitrate=N/A speed=14.6x    frame=12090 fps=350 q=-0.0 size=N/A time=00:08:24.25 bitrate=N/A speed=14.6x    frame=12253 fps=349 q=-0.0 size=N/A time=00:08:31.05 bitrate=N/A speed=14.6x    frame=12425 fps=349 q=-0.0 size=N/A time=00:08:38.22 bitrate=N/A speed=14.6x    frame=12587 fps=348 q=-0.0 size=N/A time=00:08:44.98 bitrate=N/A speed=14.5x    frame=12773 fps=349 q=-0.0 size=N/A time=00:08:52.74 bitrate=N/A speed=14.5x    frame=12955 fps=349 q=-0.0 size=N/A time=00:09:00.33 bitrate=N/A speed=14.5x    frame=13142 fps=349 q=-0.0 size=N/A time=00:09:08.13 bitrate=N/A speed=14.5x    frame=13316 fps=349 q=-0.0 size=N/A time=00:09:15.38 bitrate=N/A speed=14.5x    frame=13504 fps=349 q=-0.0 size=N/A time=00:09:23.22 bitrate=N/A speed=14.6x    frame=13688 fps=349 q=-0.0 size=N/A time=00:09:30.90 bitrate=N/A speed=14.6x    frame=13864 fps=349 q=-0.0 size=N/A time=00:09:38.24 bitrate=N/A speed=14.6x    frame=14033 fps=349 q=-0.0 size=N/A time=00:09:45.29 bitrate=N/A speed=14.5x    frame=14190 fps=348 q=-0.0 size=N/A time=00:09:51.84 bitrate=N/A speed=14.5x    frame=14369 fps=348 q=-0.0 size=N/A time=00:09:59.30 bitrate=N/A speed=14.5x    frame=14538 fps=348 q=-0.0 size=N/A time=00:10:06.35 bitrate=N/A speed=14.5x    frame=14713 fps=348 q=-0.0 size=N/A time=00:10:13.65 bitrate=N/A speed=14.5x    frame=14899 fps=348 q=-0.0 size=N/A time=00:10:21.41 bitrate=N/A speed=14.5x    frame=15085 fps=348 q=-0.0 size=N/A time=00:10:29.17 bitrate=N/A speed=14.5x    frame=15254 fps=348 q=-0.0 size=N/A time=00:10:36.21 bitrate=N/A speed=14.5x    frame=15442 fps=348 q=-0.0 size=N/A time=00:10:44.06 bitrate=N/A speed=14.5x    frame=15628 fps=348 q=-0.0 size=N/A time=00:10:51.81 bitrate=N/A speed=14.5x    frame=15816 fps=348 q=-0.0 size=N/A time=00:10:59.65 bitrate=N/A speed=14.5x    frame=16003 fps=348 q=-0.0 size=N/A time=00:11:07.45 bitrate=N/A speed=14.5x    frame=16198 fps=349 q=-0.0 size=N/A time=00:11:15.59 bitrate=N/A speed=14.5x    frame=16388 fps=349 q=-0.0 size=N/A time=00:11:23.51 bitrate=N/A speed=14.6x    frame=16571 fps=349 q=-0.0 size=N/A time=00:11:31.14 bitrate=N/A speed=14.6x    frame=16749 fps=349 q=-0.0 size=N/A time=00:11:38.57 bitrate=N/A speed=14.6x    frame=16943 fps=349 q=-0.0 size=N/A time=00:11:46.66 bitrate=N/A speed=14.6x    frame=17132 fps=350 q=-0.0 size=N/A time=00:11:54.54 bitrate=N/A speed=14.6x    frame=17326 fps=350 q=-0.0 size=N/A time=00:12:02.63 bitrate=N/A speed=14.6x    frame=17510 fps=350 q=-0.0 size=N/A time=00:12:10.31 bitrate=N/A speed=14.6x    frame=17693 fps=350 q=-0.0 size=N/A time=00:12:17.94 bitrate=N/A speed=14.6x    frame=17878 fps=350 q=-0.0 size=N/A time=00:12:25.66 bitrate=N/A speed=14.6x    frame=18072 fps=350 q=-0.0 size=N/A time=00:12:33.75 bitrate=N/A speed=14.6x    frame=18251 fps=350 q=-0.0 size=N/A time=00:12:41.21 bitrate=N/A speed=14.6x    frame=18438 fps=350 q=-0.0 size=N/A time=00:12:49.01 bitrate=N/A speed=14.6x    frame=18634 fps=351 q=-0.0 size=N/A time=00:12:57.19 bitrate=N/A speed=14.6x    frame=18818 fps=351 q=-0.0 size=N/A time=00:13:04.86 bitrate=N/A speed=14.6x    frame=19006 fps=351 q=-0.0 size=N/A time=00:13:12.70 bitrate=N/A speed=14.6x    frame=19193 fps=351 q=-0.0 size=N/A time=00:13:20.50 bitrate=N/A speed=14.6x    frame=19376 fps=351 q=-0.0 size=N/A time=00:13:28.14 bitrate=N/A speed=14.6x    frame=19549 fps=351 q=-0.0 size=N/A time=00:13:35.35 bitrate=N/A speed=14.6x    frame=19732 fps=351 q=-0.0 size=N/A time=00:13:42.98 bitrate=N/A speed=14.6x    frame=19926 fps=351 q=-0.0 size=N/A time=00:13:51.08 bitrate=N/A speed=14.6x    frame=20118 fps=351 q=-0.0 size=N/A time=00:13:59.08 bitrate=N/A speed=14.7x    frame=20316 fps=352 q=-0.0 size=N/A time=00:14:07.34 bitrate=N/A speed=14.7x    frame=20497 fps=352 q=-0.0 size=N/A time=00:14:14.89 bitrate=N/A speed=14.7x    frame=20673 fps=352 q=-0.0 size=N/A time=00:14:22.23 bitrate=N/A speed=14.7x    frame=20876 fps=352 q=-0.0 size=N/A time=00:14:30.70 bitrate=N/A speed=14.7x    frame=21062 fps=352 q=-0.0 size=N/A time=00:14:38.46 bitrate=N/A speed=14.7x    frame=21259 fps=352 q=-0.0 size=N/A time=00:14:46.67 bitrate=N/A speed=14.7x    frame=21444 fps=352 q=-0.0 size=N/A time=00:14:54.39 bitrate=N/A speed=14.7x    frame=21635 fps=352 q=-0.0 size=N/A time=00:15:02.35 bitrate=N/A speed=14.7x    frame=21814 fps=352 q=-0.0 size=N/A time=00:15:09.82 bitrate=N/A speed=14.7x    frame=22000 fps=352 q=-0.0 size=N/A time=00:15:17.58 bitrate=N/A speed=14.7x    frame=22190 fps=353 q=-0.0 size=N/A time=00:15:25.50 bitrate=N/A speed=14.7x    frame=22373 fps=353 q=-0.0 size=N/A time=00:15:33.14 bitrate=N/A speed=14.7x    frame=22553 fps=353 q=-0.0 size=N/A time=00:15:40.64 bitrate=N/A speed=14.7x    frame=22737 fps=353 q=-0.0 size=N/A time=00:15:48.32 bitrate=N/A speed=14.7x    frame=22928 fps=353 q=-0.0 size=N/A time=00:15:56.28 bitrate=N/A speed=14.7x    frame=23118 fps=353 q=-0.0 size=N/A time=00:16:04.21 bitrate=N/A speed=14.7x    frame=23307 fps=353 q=-0.0 size=N/A time=00:16:12.09 bitrate=N/A speed=14.7x    frame=23494 fps=353 q=-0.0 size=N/A time=00:16:19.89 bitrate=N/A speed=14.7x    frame=23684 fps=353 q=-0.0 size=N/A time=00:16:27.82 bitrate=N/A speed=14.7x    frame=23873 fps=353 q=-0.0 size=N/A time=00:16:35.70 bitrate=N/A speed=14.7x    frame=24050 fps=353 q=-0.0 size=N/A time=00:16:43.08 bitrate=N/A speed=14.7x    frame=24226 fps=353 q=-0.0 size=N/A time=00:16:50.42 bitrate=N/A speed=14.7x    frame=24417 fps=353 q=-0.0 size=N/A time=00:16:58.39 bitrate=N/A speed=14.7x    frame=24608 fps=353 q=-0.0 size=N/A time=00:17:06.35 bitrate=N/A speed=14.7x    frame=24798 fps=353 q=-0.0 size=N/A time=00:17:14.28 bitrate=N/A speed=14.7x    frame=24987 fps=354 q=-0.0 size=N/A time=00:17:22.16 bitrate=N/A speed=14.7x    frame=25180 fps=354 q=-0.0 size=N/A time=00:17:30.21 bitrate=N/A speed=14.8x    frame=25369 fps=354 q=-0.0 size=N/A time=00:17:38.09 bitrate=N/A speed=14.8x    frame=25559 fps=354 q=-0.0 size=N/A time=00:17:46.02 bitrate=N/A speed=14.8x    frame=25749 fps=354 q=-0.0 size=N/A time=00:17:53.94 bitrate=N/A speed=14.8x    frame=25944 fps=354 q=-0.0 size=N/A time=00:18:02.08 bitrate=N/A speed=14.8x    frame=26130 fps=354 q=-0.0 size=N/A time=00:18:09.83 bitrate=N/A speed=14.8x    frame=26323 fps=354 q=-0.0 size=N/A time=00:18:17.88 bitrate=N/A speed=14.8x    frame=26510 fps=354 q=-0.0 size=N/A time=00:18:25.68 bitrate=N/A speed=14.8x    frame=26712 fps=355 q=-0.0 size=N/A time=00:18:34.11 bitrate=N/A speed=14.8x    frame=26901 fps=355 q=-0.0 size=N/A time=00:18:41.99 bitrate=N/A speed=14.8x    frame=27077 fps=355 q=-0.0 size=N/A time=00:18:49.33 bitrate=N/A speed=14.8x    frame=27259 fps=355 q=-0.0 size=N/A time=00:18:56.92 bitrate=N/A speed=14.8x    frame=27449 fps=355 q=-0.0 size=N/A time=00:19:04.85 bitrate=N/A speed=14.8x    frame=27634 fps=355 q=-0.0 size=N/A time=00:19:12.56 bitrate=N/A speed=14.8x    frame=27827 fps=355 q=-0.0 size=N/A time=00:19:20.61 bitrate=N/A speed=14.8x    frame=28014 fps=355 q=-0.0 size=N/A time=00:19:28.41 bitrate=N/A speed=14.8x    frame=28209 fps=355 q=-0.0 size=N/A time=00:19:36.55 bitrate=N/A speed=14.8x    frame=28394 fps=355 q=-0.0 size=N/A time=00:19:44.26 bitrate=N/A speed=14.8x    frame=28590 fps=355 q=-0.0 size=N/A time=00:19:52.44 bitrate=N/A speed=14.8x    frame=28766 fps=355 q=-0.0 size=N/A time=00:19:59.78 bitrate=N/A speed=14.8x    frame=28944 fps=355 q=-0.0 size=N/A time=00:20:07.20 bitrate=N/A speed=14.8x    frame=29117 fps=355 q=-0.0 size=N/A time=00:20:14.42 bitrate=N/A speed=14.8x    frame=29307 fps=355 q=-0.0 size=N/A time=00:20:22.34 bitrate=N/A speed=14.8x    frame=29482 fps=355 q=-0.0 size=N/A time=00:20:29.64 bitrate=N/A speed=14.8x    frame=29659 fps=355 q=-0.0 size=N/A time=00:20:37.02 bitrate=N/A speed=14.8x    frame=29842 fps=355 q=-0.0 size=N/A time=00:20:44.66 bitrate=N/A speed=14.8x    frame=30007 fps=355 q=-0.0 size=N/A time=00:20:51.54 bitrate=N/A speed=14.8x    frame=30188 fps=355 q=-0.0 size=N/A time=00:20:59.09 bitrate=N/A speed=14.8x    frame=30369 fps=355 q=-0.0 size=N/A time=00:21:06.64 bitrate=N/A speed=14.8x    frame=30564 fps=355 q=-0.0 size=N/A time=00:21:14.77 bitrate=N/A speed=14.8x    frame=30747 fps=355 q=-0.0 size=N/A time=00:21:22.40 bitrate=N/A speed=14.8x    frame=30942 fps=355 q=-0.0 size=N/A time=00:21:30.53 bitrate=N/A speed=14.8x    frame=31131 fps=355 q=-0.0 size=N/A time=00:21:38.42 bitrate=N/A speed=14.8x    frame=31323 fps=355 q=-0.0 size=N/A time=00:21:46.43 bitrate=N/A speed=14.8x    frame=31495 fps=355 q=-0.0 size=N/A time=00:21:53.60 bitrate=N/A speed=14.8x    frame=31681 fps=355 q=-0.0 size=N/A time=00:22:01.36 bitrate=N/A speed=14.8x    frame=31853 fps=355 q=-0.0 size=N/A time=00:22:08.53 bitrate=N/A speed=14.8x    frame=32026 fps=355 q=-0.0 size=N/A time=00:22:15.75 bitrate=N/A speed=14.8x    frame=32201 fps=355 q=-0.0 size=N/A time=00:22:23.05 bitrate=N/A speed=14.8x    frame=32390 fps=355 q=-0.0 size=N/A time=00:22:30.93 bitrate=N/A speed=14.8x    frame=32567 fps=355 q=-0.0 size=N/A time=00:22:38.31 bitrate=N/A speed=14.8x    frame=32726 fps=354 q=-0.0 size=N/A time=00:22:44.94 bitrate=N/A speed=14.8x    frame=32883 fps=354 q=-0.0 size=N/A time=00:22:51.49 bitrate=N/A speed=14.8x    frame=33072 fps=354 q=-0.0 size=N/A time=00:22:59.37 bitrate=N/A speed=14.8x    frame=33256 fps=354 q=-0.0 size=N/A time=00:23:07.05 bitrate=N/A speed=14.8x    frame=33431 fps=354 q=-0.0 size=N/A time=00:23:14.35 bitrate=N/A speed=14.8x    frame=33582 fps=354 q=-0.0 size=N/A time=00:23:20.64 bitrate=N/A speed=14.8x    frame=33736 fps=354 q=-0.0 size=N/A time=00:23:27.07 bitrate=N/A speed=14.7x    frame=33862 fps=353 q=-0.0 size=N/A time=00:23:32.32 bitrate=N/A speed=14.7x    frame=34020 fps=353 q=-0.0 size=N/A time=00:23:38.91 bitrate=N/A speed=14.7x    frame=34188 fps=353 q=-0.0 size=N/A time=00:23:45.92 bitrate=N/A speed=14.7x    frame=34336 fps=352 q=-0.0 size=N/A time=00:23:52.09 bitrate=N/A speed=14.7x    frame=34470 fps=352 q=-0.0 size=N/A time=00:23:57.68 bitrate=N/A speed=14.7x    frame=34650 fps=352 q=-0.0 size=N/A time=00:24:05.19 bitrate=N/A speed=14.7x    [Parsed_ssim_16 @ 000001d60e1948c0] SSIM Y:0.994240 (22.395558) U:0.993983 (22.206531) V:0.993590 (21.931730) All:0.994089 (22.283239)
[out#0/null @ 000001d67f6de740] video:14903KiB audio:271276KiB subtitle:0KiB other streams:0KiB global headers:0KiB muxing overhead: unknown
frame=34683 fps=352 q=-0.0 Lsize=N/A time=00:24:06.57 bitrate=N/A speed=14.7x    
